<svg width="88.509" xmlns="http://www.w3.org/2000/svg" height="73.502" fill="none"><defs><linearGradient id="a" x1=".5" y1="0" x2=".5" y2="1"><stop offset="0" stop-color="#22a764"/><stop offset="1" stop-color="#136b57" stop-opacity="0"/></linearGradient><linearGradient id="b" x1=".5" y1="0" x2=".5" y2="1"><stop offset="0" stop-color="#25e7e1"/><stop offset="1" stop-color="#B1B2B5" stop-opacity="0"/></linearGradient><pattern patternUnits="userSpaceOnUse" x="7.503" y=".495" width="81.006" height="73.007" id="c"><rect width="81.006" height="73.007" style="fill: url(&quot;#a&quot;);"/><rect width="81.006" height="73.007" style="fill: url(&quot;#b&quot;);"/></pattern></defs><path d="M7.503 73.502h81.006V.495H55.442S51.503 48.502 8.503 58.502l-1 15Z" fill="url(#c)" class="fills"/><g class="strokes"><g class="inner-stroke-shape"><defs><clipPath id="e"><use href="#d"/></clipPath><path d="M7.503 73.502h81.006V.495H55.442S51.503 48.502 8.503 58.502l-1 15Z" id="d" style="fill: none; stroke-width: 4; stroke: rgb(0, 0, 0); stroke-opacity: 1;"/></defs><use href="#d" clip-path="url('#e')"/></g></g><path d="M76.503 61.502 15.001 0" class="fills"/><g class="strokes"><g class="stroke-shape"><defs><marker refX="3" fill-opacity="1" orient="auto-start-reverse" id="f" viewBox="0 0 6 6" fill="#000" refY="3" markerWidth="4.243" markerHeight="4.243"><rect width="6" height="6"/></marker></defs><path d="M76.503 61.502 15.001 0" style="fill: none; stroke-width: 2; stroke: rgb(0, 0, 0); stroke-opacity: 1; marker-start: url(&quot;#f&quot;); marker-end: url(&quot;#marker-render-3-circle-marker&quot;);"/></g></g><path d="M46.503 63.502 0 16.999" class="fills"/><g class="strokes"><g class="stroke-shape"><defs><marker refX="3" fill-opacity="1" orient="auto-start-reverse" id="g" viewBox="0 0 6 6" fill="#000" refY="3" markerWidth="4" markerHeight="4"><circle cx="3" cy="3" r="3"/></marker></defs><path d="M46.503 63.502 0 16.999" style="fill: none; stroke-width: 2; stroke: rgb(0, 0, 0); stroke-opacity: 1; marker-start: url(&quot;#g&quot;); marker-end: url(&quot;#marker-render-4-circle-marker&quot;);"/></g></g><path d="M79.503 10.502H37.491" class="fills"/><g class="strokes"><g class="stroke-shape"><defs><marker refX="3" fill-opacity="1" orient="auto-start-reverse" id="h" viewBox="0 0 6 6" fill="#000" refY="3" markerWidth="6" markerHeight="6"><path d="m3 0 3 3-3 3-3-3z"/></marker></defs><path d="M79.503 10.502H37.491" style="fill: none; stroke-width: 2; stroke: rgb(0, 0, 0); stroke-opacity: 1; stroke-dasharray: 12, 12; marker-start: url(&quot;#h&quot;); marker-end: url(&quot;#marker-render-5-round&quot;);"/></g></g></svg>